<?xml version="1.0" standalone="no"?>
<!DOCTYPE svg PUBLIC "-//W3C//DTD SVG 20010904//EN"
 "http://www.w3.org/TR/2001/REC-SVG-20010904/DTD/svg10.dtd">
<svg version="1.0" xmlns="http://www.w3.org/2000/svg"
 width="111.000000pt" height="111.000000pt" viewBox="0 0 111.000000 111.000000"
 preserveAspectRatio="xMidYMid meet">

<g transform="translate(0.000000,111.000000) scale(0.100000,-0.100000)"
fill="#000000" stroke="none">
<path d="M468 953 c7 -3 16 -2 19 1 4 3 -2 6 -13 5 -11 0 -14 -3 -6 -6z"/>
<path d="M628 953 c7 -3 16 -2 19 1 4 3 -2 6 -13 5 -11 0 -14 -3 -6 -6z"/>
<path d="M390 930 c-9 -6 -10 -10 -3 -10 6 0 15 5 18 10 8 12 4 12 -15 0z"/>
<path d="M700 930 c8 -5 20 -10 25 -10 6 0 3 5 -5 10 -8 5 -19 10 -25 10 -5 0
-3 -5 5 -10z"/>
<path d="M520 891 c0 -20 5 -29 15 -27 23 3 30 16 9 16 -16 0 -17 2 -4 10 13
9 13 10 0 10 -13 0 -13 1 0 10 13 8 12 10 -2 10 -13 0 -18 -8 -18 -29z"/>
<path d="M580 913 c0 -6 -3 -19 -7 -29 -5 -13 -3 -16 9 -12 9 4 21 1 27 -5 8
-8 11 -3 11 19 0 20 -3 25 -9 15 -7 -11 -11 -10 -20 5 -6 11 -11 14 -11 7z"/>
<path d="M480 898 c0 -7 5 -20 10 -28 8 -12 10 -11 10 7 0 12 -4 25 -10 28 -5
3 -10 0 -10 -7z"/>
<path d="M645 878 c0 -34 6 -36 21 -4 9 20 9 25 -5 29 -12 3 -16 -3 -16 -25z"/>
<path d="M309 883 c-13 -16 -12 -17 4 -4 16 13 21 21 13 21 -2 0 -10 -8 -17
-17z"/>
<path d="M440 881 c0 -11 5 -23 10 -26 6 -3 10 -1 10 5 0 6 5 8 10 5 6 -3 10
-2 10 2 0 5 -9 14 -20 21 -17 11 -20 10 -20 -7z"/>
<path d="M780 896 c0 -2 8 -10 18 -17 15 -13 16 -12 3 4 -13 16 -21 21 -21 13z"/>
<path d="M410 859 c7 -11 14 -19 16 -16 7 7 -7 37 -17 37 -6 0 -5 -9 1 -21z"/>
<path d="M249 833 l-34 -38 38 34 c34 33 42 41 34 41 -2 0 -19 -17 -38 -37z"/>
<path d="M720 855 c-10 -12 -10 -18 0 -30 7 -8 18 -15 24 -15 6 0 3 5 -6 11
-25 14 -23 33 3 26 12 -3 19 -1 16 6 -6 18 -23 19 -37 2z"/>
<path d="M850 835 c19 -19 36 -35 39 -35 3 0 -10 16 -29 35 -19 19 -36 35 -39
35 -3 0 10 -16 29 -35z"/>
<path d="M360 835 c0 -14 5 -25 11 -25 6 0 9 6 6 14 -4 10 1 12 16 9 22 -5 22
-5 2 10 -28 23 -35 21 -35 -8z"/>
<path d="M770 821 c-19 -37 14 -58 40 -26 15 18 -1 20 -18 3 -17 -17 -27 -2
-12 17 7 9 10 18 7 21 -3 3 -10 -4 -17 -15z"/>
<path d="M310 814 c-8 -10 -10 -16 -5 -11 4 4 17 0 27 -10 11 -9 18 -11 18 -5
0 7 -4 12 -9 12 -5 0 -11 7 -13 17 -3 14 -5 14 -18 -3z"/>
<path d="M200 770 c-6 -11 -8 -20 -6 -20 3 0 10 9 16 20 6 11 8 20 6 20 -3 0
-10 -9 -16 -20z"/>
<path d="M270 775 c-7 -9 -10 -19 -6 -22 4 -4 12 -1 17 7 9 13 10 12 6 -2 -8
-23 3 -30 20 -12 12 12 13 18 3 29 -16 19 -24 19 -40 0z"/>
<path d="M816 771 c-10 -11 -15 -25 -11 -31 5 -7 12 -1 21 16 18 34 13 40 -10
15z"/>
<path d="M900 770 c6 -11 13 -20 16 -20 2 0 0 9 -6 20 -6 11 -13 20 -16 20 -2
0 0 -9 6 -20z"/>
<path d="M420 599 l0 -149 150 0 150 0 0 95 0 95 -61 0 c-54 0 -60 2 -49 15 8
10 9 15 2 15 -6 0 -15 -6 -19 -14 -10 -17 -20 -19 -100 -17 l-63 1 0 46 c0 28
4 43 10 39 6 -4 7 -11 4 -17 -4 -7 -2 -8 5 -4 6 4 9 12 5 17 -3 6 12 9 40 8
41 -2 45 -5 40 -22 -4 -13 -2 -17 5 -13 6 4 11 14 11 22 0 8 4 14 10 14 5 0 7
-6 4 -14 -8 -21 33 -41 52 -25 8 6 14 17 14 23 0 6 -5 4 -10 -6 -6 -10 -18
-14 -30 -11 -38 10 -14 28 37 29 l51 2 -26 -23 c-33 -29 -24 -51 22 -53 l36
-1 0 49 0 50 -145 -1 -145 0 0 -150z m277 100 c-2 -27 -6 -32 -29 -35 -34 -3
-37 13 -5 26 12 5 18 9 14 9 -6 1 12 29 20 31 1 0 1 -14 0 -31z m-214 -203
c-18 -10 -49 16 -39 33 5 8 15 5 31 -6 19 -15 21 -19 8 -27z m206 10 c-2 -2
-15 -7 -29 -10 l-25 -7 25 15 c21 12 42 14 29 2z m-111 -13 c-4 -22 -22 -20
-26 1 -2 10 3 16 13 16 10 0 15 -7 13 -17z"/>
<path d="M175 729 c-4 -6 -5 -12 -2 -15 2 -3 7 2 10 11 7 17 1 20 -8 4z"/>
<path d="M236 723 c-7 -18 11 -34 33 -30 8 1 16 9 19 17 3 12 2 12 -8 3 -16
-15 -40 -6 -33 13 3 8 3 14 0 14 -3 0 -8 -8 -11 -17z"/>
<path d="M847 721 c-17 -17 -16 -18 12 -17 24 1 27 4 20 19 -11 20 -10 20 -32
-2z"/>
<path d="M474 708 c-3 -5 -3 -12 0 -15 3 -4 6 0 6 7 0 9 6 8 20 -5 25 -22 25
-32 3 -38 -14 -4 -12 -5 5 -6 12 0 22 4 22 10 0 8 6 7 17 -2 10 -8 6 0 -7 18
-27 33 -56 47 -66 31z"/>
<path d="M215 671 c-4 -13 -4 -25 -1 -28 3 -4 6 -2 6 4 0 6 10 9 23 6 16 -3
18 -2 8 5 -7 5 -17 15 -21 22 -6 9 -10 6 -15 -9z"/>
<path d="M864 676 c-17 -13 -17 -16 -4 -30 14 -14 18 -14 35 -2 18 13 18 14
-8 9 -16 -3 -27 -1 -27 6 0 6 6 11 14 11 8 0 18 5 21 10 9 15 -8 12 -31 -4z"/>
<path d="M565 670 c3 -5 8 -10 11 -10 2 0 4 5 4 10 0 6 -5 10 -11 10 -5 0 -7
-4 -4 -10z"/>
<path d="M200 622 c0 -15 32 -24 44 -12 7 7 7 10 -1 10 -6 0 -18 3 -27 6 -9 3
-16 2 -16 -4z"/>
<path d="M873 596 c0 -21 3 -23 21 -17 11 5 21 15 21 22 0 8 -10 15 -21 17
-17 2 -21 -2 -21 -22z m37 4 c0 -5 -4 -10 -10 -10 -5 0 -10 5 -10 10 0 6 5 10
10 10 6 0 10 -4 10 -10z"/>
<path d="M200 590 c0 -5 12 -10 28 -9 24 0 25 1 7 9 -27 12 -35 12 -35 0z"/>
<path d="M240 543 c0 -15 -2 -16 -10 -3 -7 11 -10 11 -10 2 0 -7 -4 -10 -10
-7 -5 3 -10 1 -10 -4 0 -6 11 -11 25 -11 18 0 25 5 25 20 0 11 -2 20 -5 20 -3
0 -5 -8 -5 -17z"/>
<path d="M871 538 c0 -13 3 -17 6 -9 5 11 7 11 14 0 7 -12 9 -11 9 1 0 13 1
13 10 0 8 -12 10 -11 10 8 0 17 -6 22 -25 22 -19 0 -25 -5 -24 -22z"/>
<path d="M820 490 c0 -5 4 -10 9 -10 6 0 13 5 16 10 3 6 -1 10 -9 10 -9 0 -16
-4 -16 -10z"/>
<path d="M265 460 c3 -5 10 -10 16 -10 5 0 9 5 9 10 0 6 -7 10 -16 10 -8 0
-12 -4 -9 -10z"/>
<path d="M951 444 c0 -11 3 -14 6 -6 3 7 2 16 -1 19 -3 4 -6 -2 -5 -13z"/>
<path d="M311 394 c0 -11 3 -14 6 -6 3 7 2 16 -1 19 -3 4 -6 -2 -5 -13z"/>
<path d="M340 395 c0 -6 7 -12 15 -12 8 0 15 6 15 12 0 6 -7 12 -15 12 -8 0
-15 -6 -15 -12z"/>
<path d="M380 396 c0 -9 5 -16 10 -16 6 0 10 4 10 9 0 6 -4 13 -10 16 -5 3
-10 -1 -10 -9z"/>
<path d="M430 393 c0 -7 7 -13 15 -13 8 0 15 6 15 13 0 8 -7 14 -15 14 -8 0
-15 -6 -15 -14z"/>
<path d="M470 396 c0 -9 5 -16 10 -16 6 0 10 4 10 9 0 6 -4 13 -10 16 -5 3
-10 -1 -10 -9z"/>
<path d="M511 394 c0 -11 3 -14 6 -6 3 7 2 16 -1 19 -3 4 -6 -2 -5 -13z"/>
<path d="M596 402 c-3 -6 -1 -14 5 -17 15 -10 25 3 12 16 -7 7 -13 7 -17 1z"/>
<path d="M632 398 c6 -18 28 -21 28 -4 0 9 -7 16 -16 16 -9 0 -14 -5 -12 -12z"/>
<path d="M711 394 c0 -11 3 -14 6 -6 3 7 2 16 -1 19 -3 4 -6 -2 -5 -13z"/>
<path d="M760 394 c0 -8 5 -12 10 -9 6 4 8 11 5 16 -9 14 -15 11 -15 -7z"/>
<path d="M795 401 c-6 -11 13 -26 22 -17 4 3 0 6 -8 6 -11 0 -11 2 1 10 9 6
10 10 3 10 -6 0 -14 -4 -18 -9z"/>
<path d="M845 401 c-3 -5 -1 -12 5 -16 5 -3 10 1 10 9 0 18 -6 21 -15 7z"/>
<path d="M170 391 c0 -6 4 -13 10 -16 6 -3 7 1 4 9 -7 18 -14 21 -14 7z"/>
<path d="M926 383 c-6 -14 -5 -15 5 -6 7 7 10 15 7 18 -3 3 -9 -2 -12 -12z"/>
<path d="M900 340 c-6 -11 -8 -20 -6 -20 3 0 10 9 16 20 6 11 8 20 6 20 -3 0
-10 -9 -16 -20z"/>
<path d="M262 338 c-14 -14 -16 -32 -3 -23 5 3 11 -4 13 -16 l3 -21 20 23 c11
12 14 19 8 15 -9 -5 -13 0 -13 13 0 24 -10 27 -28 9z"/>
<path d="M440 334 c0 -8 5 -12 10 -9 6 4 8 11 5 16 -9 14 -15 11 -15 -7z"/>
<path d="M477 333 c3 -7 9 -10 14 -7 14 8 11 21 -5 21 -8 0 -12 -6 -9 -14z"/>
<path d="M510 334 c0 -8 5 -12 10 -9 6 3 10 10 10 16 0 5 -4 9 -10 9 -5 0 -10
-7 -10 -16z"/>
<path d="M550 335 c0 -8 5 -15 10 -15 6 0 10 7 10 15 0 8 -4 15 -10 15 -5 0
-10 -7 -10 -15z"/>
<path d="M587 333 c3 -7 6 -13 8 -13 2 0 5 6 8 13 3 8 -1 14 -8 14 -7 0 -11
-6 -8 -14z"/>
<path d="M620 336 c0 -9 7 -16 16 -16 17 0 14 22 -4 28 -7 2 -12 -3 -12 -12z"/>
<path d="M707 343 c-4 -3 -7 -11 -7 -17 0 -6 5 -5 12 2 6 6 9 14 7 17 -3 3 -9
2 -12 -2z"/>
<path d="M813 334 c-3 -8 2 -23 11 -32 15 -15 17 -15 34 1 16 17 16 19 -2 33
-25 18 -35 18 -43 -2z m47 -18 c0 -3 -4 -8 -10 -11 -5 -3 -10 -1 -10 4 0 6 5
11 10 11 6 0 10 -2 10 -4z"/>
<path d="M660 336 c0 -2 7 -6 15 -10 8 -3 15 -1 15 4 0 6 -7 10 -15 10 -8 0
-15 -2 -15 -4z"/>
<path d="M245 281 c17 -18 44 -42 60 -54 35 -24 27 -15 -40 44 -37 32 -42 35
-20 10z"/>
<path d="M845 268 l-40 -43 43 40 c39 36 47 45 39 45 -2 0 -21 -19 -42 -42z"/>
<path d="M788 288 c7 -7 12 -19 12 -27 0 -11 -4 -10 -20 4 -11 10 -22 16 -25
13 -3 -3 4 -13 15 -23 16 -14 22 -15 35 -5 11 9 12 17 4 31 -5 10 -15 19 -21
19 -9 0 -9 -3 0 -12z"/>
<path d="M304 275 c-17 -13 -18 -14 -1 -15 10 0 21 -8 24 -17 6 -15 7 -15 14
3 18 45 1 58 -37 29z"/>
<path d="M376 255 c4 -8 1 -22 -6 -30 -18 -22 -3 -18 20 5 19 19 19 20 0 30
-16 9 -18 8 -14 -5z"/>
<path d="M719 231 c13 -23 48 -34 48 -14 0 8 -6 12 -14 9 -8 -3 -16 1 -19 9
-4 8 -10 15 -15 15 -6 0 -6 -8 0 -19z"/>
<path d="M661 227 c-8 -10 -7 -18 2 -29 18 -22 44 -29 44 -12 0 8 -6 13 -13
10 -22 -8 -28 16 -9 31 16 11 16 13 3 13 -8 0 -21 -6 -27 -13z"/>
<path d="M415 210 c-20 -22 -8 -28 14 -7 8 6 11 8 9 2 -3 -5 1 -16 9 -24 13
-11 14 -9 11 15 -4 35 -19 40 -43 14z"/>
<path d="M487 213 c-13 -12 -7 -41 9 -47 9 -4 19 -4 22 -1 3 2 -2 7 -10 10
-10 4 -14 14 -11 26 5 19 2 24 -10 12z"/>
<path d="M541 193 c-1 -28 2 -33 22 -32 15 1 17 3 5 6 -9 2 -19 16 -21 31 -4
24 -4 24 -6 -5z"/>
<path d="M596 193 c9 -38 14 -42 14 -10 0 14 -5 29 -10 32 -7 4 -8 -3 -4 -22z"/>
<path d="M387 179 c7 -7 15 -10 18 -7 3 3 -2 9 -12 12 -14 6 -15 5 -6 -5z"/>
<path d="M458 153 c7 -3 16 -2 19 1 4 3 -2 6 -13 5 -11 0 -14 -3 -6 -6z"/>
<path d="M628 153 c7 -3 16 -2 19 1 4 3 -2 6 -13 5 -11 0 -14 -3 -6 -6z"/>
</g>
</svg>
