<?xml version="1.0" standalone="no"?>
<!DOCTYPE svg PUBLIC "-//W3C//DTD SVG 20010904//EN"
 "http://www.w3.org/TR/2001/REC-SVG-20010904/DTD/svg10.dtd">
<svg version="1.0" xmlns="http://www.w3.org/2000/svg"
 width="512.000000pt" height="512.000000pt" viewBox="0 0 512.000000 512.000000"
 preserveAspectRatio="xMidYMid meet">

<g transform="translate(0.000000,512.000000) scale(0.100000,-0.100000)"
fill="#000000" stroke="none">
<path d="M2442 5104 c-395 -66 -724 -353 -855 -745 -68 -203 -61 -494 18 -702
13 -36 97 -211 185 -388 140 -280 158 -321 138 -316 -13 3 -52 11 -88 17 -65
11 -70 10 -854 -158 -786 -169 -790 -169 -818 -201 l-28 -31 0 -436 c0 -464 1
-478 49 -504 25 -13 77 -13 102 0 47 26 49 44 49 450 0 209 2 380 4 380 2 0
297 63 656 140 359 77 661 140 671 140 18 0 19 -34 19 -1120 0 -616 -3 -1120
-7 -1120 -5 0 -308 -65 -676 -143 l-667 -143 0 358 c0 382 -2 403 -49 428 -25
13 -77 13 -102 0 -48 -26 -49 -41 -49 -495 0 -472 1 -481 60 -505 30 -13 88
-2 810 153 l778 166 773 -166 774 -165 785 167 c432 93 797 175 812 183 14 8
31 26 37 39 7 16 11 168 11 462 0 423 -1 439 -20 464 -45 57 -131 51 -162 -13
-16 -31 -18 -73 -18 -412 l0 -376 -52 -12 c-631 -135 -1269 -270 -1282 -270
-15 0 -16 93 -16 1119 l0 1120 53 10 c28 7 332 71 675 144 l622 133 0 -351 c0
-225 4 -363 11 -383 23 -66 109 -84 160 -33 l29 29 0 442 c0 394 -2 445 -17
470 -17 29 -51 50 -81 50 -9 0 -361 -74 -782 -164 l-766 -165 -76 17 c-42 9
-79 20 -83 23 -3 4 94 206 215 450 122 243 235 477 250 520 145 393 46 839
-251 1138 -247 248 -604 363 -947 305z m333 -199 c164 -29 323 -107 441 -218
195 -182 287 -391 287 -652 0 -222 11 -197 -463 -1145 l-417 -835 -410 820
c-256 511 -421 852 -438 905 -33 103 -45 286 -26 394 59 339 294 607 618 706
140 42 264 50 408 25z m-709 -2188 c1 -1 108 -214 237 -473 166 -332 244 -478
264 -494 22 -17 37 -21 66 -17 21 3 45 11 53 18 9 7 99 179 200 381 101 202
190 368 197 368 11 0 51 -8 125 -25 l22 -5 0 -1120 c0 -911 -2 -1120 -13
-1120 -7 0 -307 63 -667 140 -359 77 -655 140 -657 140 -2 0 -3 506 -3 1123
l0 1124 87 -19 c48 -11 88 -20 89 -21z"/>
<path d="M2533 4670 c-331 -51 -569 -341 -550 -670 9 -164 68 -298 182 -414
73 -75 154 -126 260 -162 69 -24 96 -28 195 -28 94 0 128 4 185 23 116 38 184
80 270 166 126 126 186 268 186 444 0 114 -21 205 -71 300 -104 201 -301 329
-525 344 -44 3 -103 2 -132 -3z m219 -215 c181 -52 310 -227 309 -422 -1 -220
-154 -399 -373 -434 -143 -23 -283 26 -387 136 -201 212 -138 561 124 691 108
53 209 62 327 29z"/>
<path d="M4850 1746 c-49 -15 -76 -71 -60 -120 23 -70 108 -89 161 -37 72 73
-2 189 -101 157z"/>
<path d="M175 1396 c-32 -32 -40 -69 -25 -107 17 -39 46 -59 90 -59 44 0 73
20 90 59 26 64 -20 131 -90 131 -30 0 -47 -6 -65 -24z"/>
</g>
</svg>
