<?xml version="1.0" standalone="no"?>
<!DOCTYPE svg PUBLIC "-//W3C//DTD SVG 20010904//EN"
 "http://www.w3.org/TR/2001/REC-SVG-20010904/DTD/svg10.dtd">
<svg version="1.0" xmlns="http://www.w3.org/2000/svg"
 width="980.000000pt" height="980.000000pt" viewBox="0 0 980.000000 980.000000"
 preserveAspectRatio="xMidYMid meet">

<g transform="translate(0.000000,980.000000) scale(0.100000,-0.100000)"
fill="#000000" stroke="none">
<path d="M1805 9790 c-93 -15 -212 -56 -297 -102 -174 -97 -623 -472 -929
-777 -358 -358 -522 -593 -567 -812 -37 -177 36 -644 163 -1039 382 -1192
1471 -2704 3052 -4237 1133 -1100 2114 -1844 3053 -2318 596 -300 1098 -454
1611 -495 171 -14 240 -1 384 69 178 88 373 239 604 470 298 298 701 782 808
969 71 125 113 279 113 411 -1 147 -64 318 -157 421 -36 40 -233 176 -847 585
-918 609 -1183 783 -1253 818 -108 55 -240 75 -370 57 -172 -23 -279 -63 -503
-187 -174 -97 -668 -375 -716 -404 l-32 -19 -108 81 c-376 283 -748 614 -1253
1114 -585 579 -945 976 -1258 1389 l-106 138 21 42 c12 22 107 192 212 376
320 562 367 673 377 887 6 125 -5 206 -41 287 -27 60 -143 239 -777 1198 -532
805 -592 892 -651 943 -51 45 -160 99 -242 119 -76 20 -215 27 -291 16z m255
-783 c243 -366 883 -1332 1008 -1524 97 -148 132 -210 132 -233 0 -73 -49
-168 -513 -982 l-214 -376 139 -197 c392 -556 757 -976 1442 -1660 521 -521
917 -878 1299 -1173 187 -145 530 -383 545 -377 7 3 230 128 495 278 597 339
676 383 731 408 63 27 136 40 160 27 39 -21 523 -339 1210 -795 l698 -464 -5
-33 c-10 -60 -34 -101 -152 -254 -331 -430 -777 -885 -988 -1007 -47 -27 -52
-28 -145 -22 -195 12 -467 74 -737 168 -826 285 -1834 945 -2900 1898 -605
542 -1295 1244 -1803 1836 -1138 1325 -1767 2487 -1846 3407 -4 48 0 66 20
104 110 207 533 630 976 976 173 135 230 168 287 168 l46 -1 115 -172z"/>
</g>
</svg>
