<?xml version="1.0" standalone="no"?>
<!DOCTYPE svg PUBLIC "-//W3C//DTD SVG 20010904//EN"
 "http://www.w3.org/TR/2001/REC-SVG-20010904/DTD/svg10.dtd">
<svg version="1.0" xmlns="http://www.w3.org/2000/svg"
 width="256.000000pt" height="197.000000pt" viewBox="0 0 256.000000 197.000000"
 preserveAspectRatio="xMidYMid meet">

<g transform="translate(0.000000,197.000000) scale(0.100000,-0.100000)"
fill="#000000" stroke="none">
<path d="M333 1870 c-23 -5 -52 -14 -64 -21 l-22 -11 21 -17 c11 -9 241 -209
511 -446 270 -236 496 -430 501 -430 5 0 231 194 501 430 270 237 500 438 512
447 l22 17 -40 18 c-38 17 -97 18 -970 20 -511 0 -949 -3 -972 -7z"/>
<path d="M114 1688 c-18 -40 -19 -85 -22 -682 -2 -552 0 -646 13 -692 8 -29
19 -55 23 -57 4 -2 151 157 327 355 176 197 344 385 372 417 l53 59 -367 321
c-202 177 -370 321 -374 321 -4 0 -15 -19 -25 -42z"/>
<path d="M2047 1409 l-367 -322 73 -81 c40 -44 209 -233 375 -419 l303 -338
17 38 c16 35 17 94 17 693 0 611 -1 658 -18 703 -10 26 -22 47 -26 47 -3 0
-172 -145 -374 -321z"/>
<path d="M616 568 c-207 -232 -376 -425 -376 -429 0 -4 21 -16 48 -26 44 -17
100 -18 992 -18 892 0 948 1 993 18 26 10 47 22 47 26 0 7 -681 776 -733 828
l-22 22 -123 -110 c-68 -60 -134 -112 -147 -115 -33 -8 -56 6 -186 122 l-117
104 -376 -422z"/>
</g>
</svg>
