<?xml version="1.0" encoding="iso-8859-1"?>
<!-- Generator: Adobe Illustrator 19.0.0, SVG Export Plug-In . SVG Version: 6.00 Build 0)  -->
<svg version="1.1" id="Capa_1" xmlns="http://www.w3.org/2000/svg" xmlns:xlink="http://www.w3.org/1999/xlink" x="0px" y="0px"
	 viewBox="0 0 240.115 240.115" style="enable-background:new 0 0 240.115 240.115;" xml:space="preserve">
<g>
	<path d="M83.031,107.088c7.281,8.188,9.626,8.854,11.744,8.854c2.146,0,4.516-0.666,11.807-8.851
		c4.461-5.007,9.417-11.373,13.956-17.927c7.218-10.421,19.325-30.004,19.325-44.076C139.863,20.227,119.637,0,94.775,0
		S49.687,20.227,49.687,45.088c0,13.346,10.542,31.337,19.386,44.08C73.607,95.7,78.564,102.064,83.031,107.088z M76.341,44.776
		c0-10.246,8.336-18.581,18.582-18.581s18.582,8.335,18.582,18.581s-8.336,18.582-18.582,18.582S76.341,55.022,76.341,44.776z"/>
	<path d="M213.691,76.115h-64.849l-1.5,1.992c-0.261,0.347-26.161,34.728-31.196,40.379c-6.537,7.338-12.657,13.412-21.371,13.412
		c-8.678,0-14.785-6.074-21.311-13.412c-5.036-5.664-30.961-40.035-31.223-40.381l-1.5-1.99H27.691
		c-4.499,0-8.634,3.717-8.634,8.115v70.885h202V84.23C221.058,79.68,218.009,76.115,213.691,76.115z"/>
	<path d="M19.058,232.115c0,4.411,3.922,8,8.333,8h122.667v-62h-131V232.115z"/>
	<path d="M173.058,240.115h40.333c4.411,0,7.667-3.589,7.667-8v-54h-48V240.115z"/>
</g>
<g>
</g>
<g>
</g>
<g>
</g>
<g>
</g>
<g>
</g>
<g>
</g>
<g>
</g>
<g>
</g>
<g>
</g>
<g>
</g>
<g>
</g>
<g>
</g>
<g>
</g>
<g>
</g>
<g>
</g>
</svg>
